# xmcd CD database file
#
# Track frame offsets:
#	150
#	16765
#	37532
#	57067
#	76920
#	96600
#	121325
#	142060
#	161070
#	177560
#	198320
#
# Disc length: 2999 seconds
#
# Revision: 1
# Processed by: cddbd v1.5.2PL0 Copyright (c) Steve Scherf et al.
# Submitted via: CDex 1.70beta2
#
DISCID=8b0bb50b
DTITLE=クレヨン社 - 宙 Sola 心は空へ 空は宙へ 宙は心へ
DYEAR=2007
DGENRE=Japanese Pop
TTITLE0=暁の宙
TTITLE1=蜻蛉の透ける翅の向こうに
TTITLE2=空と海のイマージュ
TTITLE3=Souleiado～雲間から射し込む一条の陽光～
TTITLE4=Noctovision
TTITLE5=嘆きの雨～天上の門～
TTITLE6=魔術師と雪の花～snowdropの願い～
TTITLE7=淋しい太陽
TTITLE8=風がドアを叩く夜
TTITLE9=少年の時間
TTITLE10=地球のうた
EXTD=YEAR: 2007
EXTT0=
EXTT1=
EXTT2=
EXTT3=
EXTT4=
EXTT5=
EXTT6=
EXTT7=
EXTT8=
EXTT9=
EXTT10=
PLAYORDER=
